<svg xmlns="http://www.w3.org/2000/svg" viewBox="0 0 1200 628" role="img" aria-labelledby="svg-title svg-desc">
  <title id="svg-title">Ako sa pripraviť na pohovor — plán a čas</title>
  <desc id="svg-desc">Kalendár s postupne zaznačenými dňami, otvorená kniha, hodiny a stúpajúca krivka pokroku.</desc>

  <!-- Background -->
  <rect width="1200" height="628" fill="#FAF7EF"/>

  <!-- Subtle grid texture -->
  <g opacity="0.06">
    <path d="M0 80h1200M0 160h1200M0 240h1200M0 320h1200M0 400h1200M0 480h1200M0 560h1200" stroke="#0B4EA2" stroke-width="1"/>
  </g>

  <!-- Decorative shield top-left -->
  <g transform="translate(80, 70)">
    <path d="M0 0 L60 0 L60 45 Q60 72 30 85 Q0 72 0 45 Z" fill="#EE1C25" opacity="0.9"/>
    <path d="M0 0 L60 0 L60 18 L0 18 Z" fill="#0B4EA2" opacity="0.9"/>
    <rect x="0" y="18" width="60" height="18" fill="#FAF7EF"/>
    <path d="M12 52 L48 52 M20 62 L40 62 M26 72 L34 72" stroke="#FAF7EF" stroke-width="2.5" stroke-linecap="round"/>
  </g>

  <!-- CALENDAR (center-left) -->
  <g transform="translate(180, 160)">
    <!-- Calendar back panel -->
    <rect x="0" y="0" width="340" height="340" rx="16" fill="#FFFFFF" stroke="#D4C9B0" stroke-width="1.5"/>

    <!-- Header strip -->
    <rect x="0" y="0" width="340" height="58" rx="16" fill="#0B4EA2"/>
    <rect x="0" y="30" width="340" height="28" fill="#0B4EA2"/>
    <text x="170" y="38" text-anchor="middle" font-family="Arial, sans-serif" font-size="20" font-weight="700" fill="#FFFFFF" letter-spacing="2">PLÁN PRÍPRAVY</text>

    <!-- Day headers -->
    <g transform="translate(20, 78)">
      <text x="22" y="12" text-anchor="middle" font-family="Arial, sans-serif" font-size="11" font-weight="600" fill="#6B7280">PO</text>
      <text x="66" y="12" text-anchor="middle" font-family="Arial, sans-serif" font-size="11" font-weight="600" fill="#6B7280">UT</text>
      <text x="110" y="12" text-anchor="middle" font-family="Arial, sans-serif" font-size="11" font-weight="600" fill="#6B7280">ST</text>
      <text x="154" y="12" text-anchor="middle" font-family="Arial, sans-serif" font-size="11" font-weight="600" fill="#6B7280">ŠT</text>
      <text x="198" y="12" text-anchor="middle" font-family="Arial, sans-serif" font-size="11" font-weight="600" fill="#6B7280">PI</text>
      <text x="242" y="12" text-anchor="middle" font-family="Arial, sans-serif" font-size="11" font-weight="600" fill="#EE1C25">SO</text>
      <text x="286" y="12" text-anchor="middle" font-family="Arial, sans-serif" font-size="11" font-weight="600" fill="#EE1C25">NE</text>
    </g>

    <!-- 4 weeks of day cells -->
    <g transform="translate(20, 95)">
      <!-- Week 1 — all checked -->
      <g transform="translate(0, 0)">
        <rect x="6" y="0" width="32" height="32" rx="6" fill="#DCE8F5"/>
        <path d="M16 16 L22 22 L32 10" stroke="#2E7D32" stroke-width="3" fill="none" stroke-linecap="round"/>
      </g>
      <g transform="translate(44, 0)">
        <rect x="6" y="0" width="32" height="32" rx="6" fill="#DCE8F5"/>
        <path d="M16 16 L22 22 L32 10" stroke="#2E7D32" stroke-width="3" fill="none" stroke-linecap="round"/>
      </g>
      <g transform="translate(88, 0)">
        <rect x="6" y="0" width="32" height="32" rx="6" fill="#DCE8F5"/>
        <path d="M16 16 L22 22 L32 10" stroke="#2E7D32" stroke-width="3" fill="none" stroke-linecap="round"/>
      </g>
      <g transform="translate(132, 0)">
        <rect x="6" y="0" width="32" height="32" rx="6" fill="#DCE8F5"/>
        <path d="M16 16 L22 22 L32 10" stroke="#2E7D32" stroke-width="3" fill="none" stroke-linecap="round"/>
      </g>
      <g transform="translate(176, 0)">
        <rect x="6" y="0" width="32" height="32" rx="6" fill="#DCE8F5"/>
        <path d="M16 16 L22 22 L32 10" stroke="#2E7D32" stroke-width="3" fill="none" stroke-linecap="round"/>
      </g>
      <g transform="translate(220, 0)">
        <rect x="6" y="0" width="32" height="32" rx="6" fill="#F5E8E8"/>
      </g>
      <g transform="translate(264, 0)">
        <rect x="6" y="0" width="32" height="32" rx="6" fill="#F5E8E8"/>
      </g>

      <!-- Week 2 — all checked -->
      <g transform="translate(0, 42)">
        <rect x="6" y="0" width="32" height="32" rx="6" fill="#DCE8F5"/>
        <path d="M16 16 L22 22 L32 10" stroke="#2E7D32" stroke-width="3" fill="none" stroke-linecap="round"/>
      </g>
      <g transform="translate(44, 42)">
        <rect x="6" y="0" width="32" height="32" rx="6" fill="#DCE8F5"/>
        <path d="M16 16 L22 22 L32 10" stroke="#2E7D32" stroke-width="3" fill="none" stroke-linecap="round"/>
      </g>
      <g transform="translate(88, 42)">
        <rect x="6" y="0" width="32" height="32" rx="6" fill="#DCE8F5"/>
        <path d="M16 16 L22 22 L32 10" stroke="#2E7D32" stroke-width="3" fill="none" stroke-linecap="round"/>
      </g>
      <g transform="translate(132, 42)">
        <rect x="6" y="0" width="32" height="32" rx="6" fill="#DCE8F5"/>
        <path d="M16 16 L22 22 L32 10" stroke="#2E7D32" stroke-width="3" fill="none" stroke-linecap="round"/>
      </g>
      <g transform="translate(176, 42)">
        <rect x="6" y="0" width="32" height="32" rx="6" fill="#DCE8F5"/>
        <path d="M16 16 L22 22 L32 10" stroke="#2E7D32" stroke-width="3" fill="none" stroke-linecap="round"/>
      </g>
      <g transform="translate(220, 42)">
        <rect x="6" y="0" width="32" height="32" rx="6" fill="#F5E8E8"/>
      </g>
      <g transform="translate(264, 42)">
        <rect x="6" y="0" width="32" height="32" rx="6" fill="#F5E8E8"/>
      </g>

      <!-- Week 3 — partial — today highlighted -->
      <g transform="translate(0, 84)">
        <rect x="6" y="0" width="32" height="32" rx="6" fill="#DCE8F5"/>
        <path d="M16 16 L22 22 L32 10" stroke="#2E7D32" stroke-width="3" fill="none" stroke-linecap="round"/>
      </g>
      <g transform="translate(44, 84)">
        <rect x="6" y="0" width="32" height="32" rx="6" fill="#DCE8F5"/>
        <path d="M16 16 L22 22 L32 10" stroke="#2E7D32" stroke-width="3" fill="none" stroke-linecap="round"/>
      </g>
      <!-- Today cell -->
      <g transform="translate(88, 84)">
        <rect x="6" y="0" width="32" height="32" rx="6" fill="#EE1C25"/>
        <text x="22" y="22" text-anchor="middle" font-family="Arial, sans-serif" font-size="14" font-weight="700" fill="#FFFFFF">15</text>
      </g>
      <g transform="translate(132, 84)">
        <rect x="6" y="0" width="32" height="32" rx="6" fill="#F2F2F2"/>
      </g>
      <g transform="translate(176, 84)">
        <rect x="6" y="0" width="32" height="32" rx="6" fill="#F2F2F2"/>
      </g>
      <g transform="translate(220, 84)">
        <rect x="6" y="0" width="32" height="32" rx="6" fill="#F5E8E8"/>
      </g>
      <g transform="translate(264, 84)">
        <rect x="6" y="0" width="32" height="32" rx="6" fill="#F5E8E8"/>
      </g>

      <!-- Week 4 — upcoming -->
      <g transform="translate(0, 126)">
        <rect x="6" y="0" width="32" height="32" rx="6" fill="#F2F2F2"/>
      </g>
      <g transform="translate(44, 126)">
        <rect x="6" y="0" width="32" height="32" rx="6" fill="#F2F2F2"/>
      </g>
      <g transform="translate(88, 126)">
        <rect x="6" y="0" width="32" height="32" rx="6" fill="#F2F2F2"/>
      </g>
      <g transform="translate(132, 126)">
        <rect x="6" y="0" width="32" height="32" rx="6" fill="#F2F2F2"/>
      </g>
      <!-- Exam day highlighted -->
      <g transform="translate(176, 126)">
        <rect x="6" y="0" width="32" height="32" rx="6" fill="#D4A847" stroke="#B8902A" stroke-width="2"/>
        <text x="22" y="20" text-anchor="middle" font-family="Arial, sans-serif" font-size="16" font-weight="700" fill="#FFFFFF">🎓</text>
      </g>
      <g transform="translate(220, 126)">
        <rect x="6" y="0" width="32" height="32" rx="6" fill="#F5E8E8"/>
      </g>
      <g transform="translate(264, 126)">
        <rect x="6" y="0" width="32" height="32" rx="6" fill="#F5E8E8"/>
      </g>
    </g>
  </g>

  <!-- OPEN BOOK (right-upper) -->
  <g transform="translate(700, 180)">
    <!-- Shadow -->
    <ellipse cx="140" cy="170" rx="150" ry="14" fill="#0B4EA2" opacity="0.15"/>

    <!-- Book pages -->
    <path d="M0 0 L140 -8 L140 150 L0 158 Z" fill="#FFFFFF" stroke="#D4C9B0" stroke-width="1.5"/>
    <path d="M140 -8 L280 0 L280 158 L140 150 Z" fill="#FFFFFF" stroke="#D4C9B0" stroke-width="1.5"/>
    <!-- Spine -->
    <path d="M140 -8 L140 150" stroke="#D4C9B0" stroke-width="1.5"/>

    <!-- Left page text lines -->
    <g transform="translate(16, 20)">
      <rect x="0" y="0" width="60" height="9" rx="1" fill="#0B4EA2"/>
      <rect x="0" y="20" width="110" height="4" rx="1" fill="#C8BCA8"/>
      <rect x="0" y="30" width="106" height="4" rx="1" fill="#C8BCA8"/>
      <rect x="0" y="40" width="100" height="4" rx="1" fill="#C8BCA8"/>
      <rect x="0" y="55" width="110" height="4" rx="1" fill="#C8BCA8"/>
      <rect x="0" y="65" width="108" height="4" rx="1" fill="#C8BCA8"/>
      <rect x="0" y="75" width="90" height="4" rx="1" fill="#C8BCA8"/>
      <rect x="0" y="95" width="60" height="7" rx="1" fill="#EE1C25"/>
      <rect x="0" y="112" width="106" height="4" rx="1" fill="#C8BCA8"/>
      <rect x="0" y="122" width="108" height="4" rx="1" fill="#C8BCA8"/>
    </g>

    <!-- Right page text lines -->
    <g transform="translate(160, 22)">
      <rect x="0" y="0" width="75" height="9" rx="1" fill="#0B4EA2"/>
      <rect x="0" y="20" width="105" height="4" rx="1" fill="#C8BCA8"/>
      <rect x="0" y="30" width="110" height="4" rx="1" fill="#C8BCA8"/>
      <rect x="0" y="40" width="95" height="4" rx="1" fill="#C8BCA8"/>
      <rect x="0" y="55" width="108" height="4" rx="1" fill="#C8BCA8"/>
      <rect x="0" y="65" width="102" height="4" rx="1" fill="#C8BCA8"/>
      <rect x="0" y="80" width="100" height="4" rx="1" fill="#C8BCA8"/>
      <rect x="0" y="95" width="106" height="4" rx="1" fill="#C8BCA8"/>
      <rect x="0" y="112" width="92" height="4" rx="1" fill="#C8BCA8"/>
    </g>
  </g>

  <!-- CLOCK (right-lower) -->
  <g transform="translate(820, 420)">
    <circle cx="0" cy="0" r="72" fill="#FFFFFF" stroke="#0B4EA2" stroke-width="5"/>
    <circle cx="0" cy="0" r="72" fill="none" stroke="#D4A847" stroke-width="5" stroke-dasharray="339" stroke-dashoffset="85" transform="rotate(-90)"/>
    <!-- Hour ticks -->
    <g stroke="#6B7280" stroke-width="2">
      <line x1="0" y1="-62" x2="0" y2="-54"/>
      <line x1="62" y1="0" x2="54" y2="0"/>
      <line x1="0" y1="62" x2="0" y2="54"/>
      <line x1="-62" y1="0" x2="-54" y2="0"/>
    </g>
    <!-- Hands -->
    <line x1="0" y1="0" x2="0" y2="-38" stroke="#083063" stroke-width="4" stroke-linecap="round"/>
    <line x1="0" y1="0" x2="30" y2="18" stroke="#EE1C25" stroke-width="3" stroke-linecap="round"/>
    <circle cx="0" cy="0" r="5" fill="#083063"/>
  </g>

  <!-- Rising progress arrow (bottom-center) -->
  <g transform="translate(560, 510)">
    <path d="M0 30 Q30 25 60 18 T120 5 T180 -10" stroke="#2E7D32" stroke-width="4" fill="none" stroke-linecap="round"/>
    <path d="M170 -14 L184 -10 L180 4" stroke="#2E7D32" stroke-width="4" fill="none" stroke-linecap="round" stroke-linejoin="round"/>
    <circle cx="0" cy="30" r="5" fill="#2E7D32"/>
    <circle cx="60" cy="18" r="4" fill="#2E7D32"/>
    <circle cx="120" cy="5" r="4" fill="#2E7D32"/>
  </g>

  <!-- Legal anchor -->
  <g transform="translate(1080, 580)" opacity="0.45">
    <text x="0" y="0" text-anchor="end" font-family="Georgia, serif" font-size="14" font-style="italic" fill="#6B7280">§ 8 ods. 6 • zákon 40/1993 Z. z.</text>
  </g>

  <!-- Kicker label top-right -->
  <g transform="translate(1120, 95)">
    <text x="0" y="0" text-anchor="end" font-family="Arial, sans-serif" font-size="13" font-weight="700" letter-spacing="2" fill="#0B4EA2">POHOVOR · SR</text>
  </g>
</svg>
